<svg width="8" height="8" viewBox="0 0 8 8" fill="none" xmlns="http://www.w3.org/2000/svg">
<path d="M2.30243 4.08826L5.37379 1.01658C5.46335 0.926588 5.51352 0.804721 5.51328 0.677756C5.51304 0.550791 5.46241 0.429115 5.37251 0.339461C5.28288 0.249419 5.16116 0.198666 5.03412 0.198366C4.90707 0.198066 4.78511 0.248243 4.69507 0.337861L1.29795 3.73498C1.20871 3.82464 1.15857 3.94595 1.15845 4.07245C1.15833 4.19894 1.20824 4.32035 1.29731 4.41018L1.29795 4.41082C1.30027 4.41319 1.30262 4.41554 1.30499 4.41786L4.71427 7.78874C4.90083 7.9753 5.19971 7.97882 5.38211 7.79674C5.56419 7.61434 5.56067 7.31578 5.37379 7.1289L2.30243 4.08826Z" fill="#1C1B1F"/>
</svg>
