<svg width="8" height="8" viewBox="0 0 8 8" fill="none" xmlns="http://www.w3.org/2000/svg">
<path d="M5.69757 4.08826L2.62621 1.01658C2.53665 0.926588 2.48648 0.804721 2.48672 0.677756C2.48696 0.550791 2.53759 0.429115 2.62749 0.339461C2.71712 0.249419 2.83884 0.198666 2.96588 0.198366C3.09293 0.198066 3.21489 0.248243 3.30493 0.337861L6.70205 3.73498C6.79129 3.82464 6.84143 3.94595 6.84155 4.07245C6.84167 4.19894 6.79176 4.32035 6.70269 4.41018L6.70205 4.41082C6.69973 4.41319 6.69738 4.41554 6.69501 4.41786L3.28573 7.78874C3.09917 7.9753 2.80029 7.97882 2.61789 7.79674C2.43581 7.61434 2.43933 7.31578 2.62621 7.1289L5.69757 4.08826Z" fill="#1C1B1F"/>
</svg>
