<svg width="45" height="24" viewBox="0 0 45 24" fill="none" xmlns="http://www.w3.org/2000/svg">
<rect width="44" height="24" transform="translate(0.5)" fill="white"/>
<path d="M33.6618 7.76214C32.0114 6.88055 30.136 7.34885 28.8536 7.89689L25.0309 9.53057L18.4563 6.5L14.5409 6.65417L19.97 11.6984L16.51 13.2047L12.9102 11.9491L10.5 12.9791L12.6782 15.458C12.448 15.7096 12.2395 16.0638 12.4288 16.4359C12.6761 16.9218 13.4069 17.1667 14.6057 17.1667C14.8515 17.1667 15.1171 17.1564 15.4021 17.1357C16.718 17.0405 18.1447 16.7326 19.0367 16.3514L32.7016 10.5116C33.8818 10.0072 34.4697 9.47755 34.4989 8.8923C34.514 8.58876 34.3811 8.14618 33.6618 7.76214Z" fill="#0090BD"/>
</svg>
