<svg width="115" height="40" viewBox="0 0 115 40" fill="none" xmlns="http://www.w3.org/2000/svg">
<mask id="mask0_236_12135" style="mask-type:luminance" maskUnits="userSpaceOnUse" x="0" y="0" width="114" height="40">
<path d="M114 0H0V40H114V0Z" fill="white"/>
</mask>
<g mask="url(#mask0_236_12135)">
<path d="M34 26.262V23.405L21.25 16.262V8.4049C21.25 7.21921 20.245 4.8335 19 4.8335C17.755 4.8335 16.75 7.21921 16.75 8.4049V16.262L4 23.405V26.262L16.75 22.6907V30.5478L13 32.6907V34.8335L19 33.405L25 34.8335V32.6907L21.25 30.5478V22.6907L34 26.262Z" fill="#11397E"/>
<path d="M1 20.3335C1 10.3971 9.06356 2.3335 19 2.3335C28.9366 2.3335 37 10.397 37 20.3335C37 30.2701 28.9366 38.3335 19 38.3335C9.06355 38.3335 1 30.2701 1 20.3335Z" stroke="#11397E" stroke-width="2"/>
<path d="M50.7591 15.4404L53.8121 24.2978L53.2535 24.0537L54.4767 24.288L54.4093 25.167H50.3834L50.4508 24.2685C50.7334 24.1383 51.0993 24.0276 51.5488 23.9365L51.3562 24.2002L48.775 16.1044L48.3898 15.4892C48.73 15.4567 49.1025 15.4372 49.507 15.4306C49.9179 15.4176 50.3353 15.4209 50.7591 15.4404ZM49.7093 15.499L46.8776 24.2978L46.6561 24.0244L47.8889 24.288L47.8215 25.167H44.7588L44.8262 24.3076C44.9482 24.236 45.1087 24.1709 45.3078 24.1123C45.5068 24.0472 45.7251 23.9886 45.9627 23.9365L45.3559 24.2978L48.3898 15.4892L49.7093 15.499ZM46.7236 22.5791L47.0414 21.3682H51.674L52.0015 22.5791H46.7236ZM56.643 25.0205V15.6357H58.9545V25.0205H56.643ZM55.7376 25.167L55.8051 24.3076C56.1132 24.1709 56.5146 24.0439 57.0089 23.9267L56.643 24.9228V23.3896H58.9545V24.9228L58.6174 24.0048L59.8984 24.288L59.8309 25.167H55.7376ZM59.8598 15.499L59.7924 16.3584C59.4842 16.4951 59.0829 16.622 58.5885 16.7392L58.9545 15.7432V17.2764H56.643V15.7432L56.9801 16.6611L55.6991 16.3779L55.7665 15.499H59.8598ZM68.0453 25.167L65.0888 21.2021L67.3904 20.5478L70.3182 24.2978L69.4517 24.0048L70.7423 24.249L70.6746 25.167H68.0453ZM65.397 21.5732C64.7549 21.5732 64.0679 21.5342 63.3359 21.456L63.4804 20.2842C64.2059 20.3623 64.9026 20.4014 65.5704 20.4014C66.6172 20.4014 67.1406 19.7828 67.1406 18.5459C67.1406 17.361 66.6429 16.7685 65.6474 16.7685H63.5286V15.499H65.7341C67.0051 15.499 67.9815 15.7432 68.662 16.2314C69.3425 16.7132 69.6831 17.4098 69.6831 18.3212C69.6831 19.1156 69.4227 19.7698 68.9027 20.2842C68.3892 20.792 67.6475 21.1208 66.6777 21.2705L66.0715 21.5342C65.9685 21.5472 65.8593 21.557 65.7437 21.5634C65.6281 21.57 65.5126 21.5732 65.397 21.5732ZM62.498 25.0205V15.6357H64.8095V25.0205H62.498ZM61.5927 25.167L61.6601 24.3076C61.9683 24.1709 62.3696 24.0439 62.864 23.9267L62.498 24.9228V23.3896H64.8095V24.9228L64.4917 24.0048L65.6763 24.288L65.6089 25.167H61.5927ZM65.7148 15.499L65.6474 16.3584C65.3392 16.4951 64.9379 16.622 64.4435 16.7392L64.8095 15.7432V17.2764H62.498V15.7432L62.8351 16.6611L61.5541 16.3779L61.6216 15.499H65.7148ZM74.0068 25.2256L71.5024 16.3584L72.0514 16.6123L70.8285 16.3779L70.8955 15.499H74.9983L74.9312 16.3779C74.6741 16.4951 74.2698 16.6058 73.7175 16.71L73.9292 16.417L75.9424 24.4248L76.2219 25.1767C75.9267 25.2093 75.5729 25.2288 75.162 25.2353C74.7511 25.2484 74.3664 25.2451 74.0068 25.2256ZM76.2219 25.1767L74.9983 25.0302L77.2811 15.8212L78.6007 15.831L76.2219 25.1767ZM79.583 25.2256L77.4356 16.4365L77.2811 15.8212C77.602 15.7887 77.9491 15.7692 78.3213 15.7627C78.694 15.7496 79.0596 15.7496 79.4193 15.7627L81.4996 24.415L81.7981 25.1767C81.5029 25.2093 81.1498 25.2288 80.7388 25.2353C80.3279 25.2484 79.9426 25.2451 79.583 25.2256ZM81.7981 25.1767L80.5561 25.0205L82.7804 16.3682L83.0407 16.6416L81.7021 16.3779L81.7691 15.499H84.8896L84.8225 16.3584C84.7002 16.4235 84.5398 16.4886 84.3406 16.5537C84.148 16.6188 83.9297 16.6774 83.6857 16.7295L84.2735 16.3779L81.7981 25.1767ZM90.8412 15.4404L93.8946 24.2978L93.3358 24.0537L94.5587 24.288L94.4916 25.167H90.4658L90.5329 24.2685C90.8156 24.1383 91.1818 24.0276 91.6309 23.9365L91.4382 24.2002L88.8569 16.1044L88.4716 15.4892C88.8122 15.4567 89.1844 15.4372 89.5894 15.4306C90.0003 15.4176 90.4171 15.4209 90.8412 15.4404ZM89.7912 15.499L86.96 24.2978L86.7385 24.0244L87.9713 24.288L87.9035 25.167H84.841L84.9087 24.3076C85.0303 24.236 85.1907 24.1709 85.39 24.1123C85.5892 24.0472 85.8075 23.9886 86.0448 23.9365L85.438 24.2978L88.4716 15.4892L89.7912 15.499ZM86.8055 22.5791L87.1238 21.3682H91.7565L92.0839 22.5791H86.8055ZM97.7942 21.8076L95.0012 16.3682L95.5883 16.6123L94.3654 16.3779L94.4331 15.499H98.5549L98.4879 16.3779C98.2308 16.4951 97.8264 16.6058 97.2742 16.71L97.4477 16.4658L99.7588 21.1338L100.086 21.7588L97.7942 21.8076ZM98.7285 21.749L101.339 16.3682L101.55 16.6416L100.202 16.3779L100.27 15.499H103.428L103.361 16.3584C103.239 16.4235 103.078 16.4886 102.879 16.5537C102.687 16.6188 102.468 16.6774 102.224 16.7295L102.87 16.3682L100.086 21.7588L98.7285 21.749ZM97.7844 25.0205V21.124H100.096V25.0205H97.7844ZM96.7251 25.167L96.7929 24.3076C96.9789 24.2295 97.1874 24.1611 97.4188 24.1025C97.6561 24.0439 97.9001 23.9951 98.1506 23.956L97.7844 24.9228V23.3896H100.096V24.9228L99.7588 24.0146L101.194 24.288L101.126 25.167H96.7251ZM107.762 25.3232C106.49 25.3232 105.457 25.0302 104.66 24.4443C104.5 23.3831 104.461 22.4814 104.545 21.7392H105.537L106.674 24.1904L105.845 23.5361C106.539 23.9332 107.252 24.1318 107.983 24.1318C108.484 24.1318 108.87 24.0309 109.139 23.8291C109.409 23.6272 109.544 23.3408 109.544 22.9697C109.544 22.6572 109.438 22.4 109.225 22.1982C109.014 21.9899 108.67 21.8108 108.195 21.6611L107.078 21.3096C105.396 20.7822 104.555 19.8122 104.555 18.3994C104.555 17.4684 104.885 16.7262 105.547 16.1728C106.208 15.6194 107.097 15.3428 108.214 15.3428C109.235 15.3428 110.16 15.5576 110.988 15.9873C111.116 16.8727 111.155 17.6767 111.104 18.3994H110.074L109.129 16.4072L110.131 17.1298C109.38 16.7327 108.667 16.5342 107.993 16.5342C107.088 16.5342 106.635 16.8955 106.635 17.6182C106.635 17.9372 106.747 18.2041 106.972 18.4189C107.203 18.6338 107.572 18.8226 108.079 18.9853L109.197 19.3369C110.841 19.8577 111.663 20.805 111.663 22.1787C111.663 23.1422 111.309 23.9072 110.603 24.4736C109.903 25.04 108.956 25.3232 107.762 25.3232Z" fill="#11397E"/>
</g>
</svg>
