<svg width="24" height="24" viewBox="0 0 24 24" fill="none" xmlns="http://www.w3.org/2000/svg">
<path d="M12 3C7.0125 3 3 7.0125 3 12C3 16.9875 7.0125 21 12 21C16.9875 21 21 16.9875 21 12C21 7.0125 16.9875 3 12 3ZM4.125 12C4.125 7.65 7.65 4.125 12 4.125C13.95 4.125 15.75 4.8375 17.1375 6.0375L13.425 9.7125L12.1875 7.35C12.1125 7.2 12.075 7.0875 11.925 7.0875H11.4C11.0625 7.0875 11.1 7.1625 11.1375 7.35L11.8875 10.6875V11.25L11.3625 11.2875C10.725 11.2875 9.975 11.4 9.375 11.5875L8.5125 10.275C8.3625 10.05 8.4 10.0125 8.25 10.0125C7.9125 10.0125 7.95 10.05 7.9875 10.275L8.25 11.85C8.25 11.8875 8.25 11.925 8.2875 11.9625C8.25 12 8.2125 12 8.2125 12.0375C8.2125 12.075 8.25 12.1125 8.325 12.15C8.25 12.1875 8.2125 12.2625 8.2125 12.375L7.95 13.95C7.9125 14.175 7.875 14.2125 8.2125 14.2125C8.3625 14.2125 8.325 14.175 8.475 13.95L9.4125 12.5625C9.7125 12.6375 10.0125 12.7125 10.35 12.7875L6 17.1C4.8375 15.7125 4.125 13.95 4.125 12ZM12 19.875C10.0125 19.875 8.175 19.125 6.7875 17.8875L11.8125 12.9H11.8875V13.4625L11.0625 16.8C11.025 16.9875 10.9875 17.0625 11.325 17.0625H11.85C12 17.0625 12.0375 16.95 12.1125 16.8L14.1375 13.125L15.15 13.2H15.3C15.8625 13.2 17.4 12.75 17.4 12.1875C17.4 11.625 15.9 11.1375 15.3 11.1H15.15L14.1375 11.1375L13.95 10.7625L17.925 6.825C19.125 8.2125 19.875 10.0125 19.875 12C19.875 16.35 16.35 19.875 12 19.875Z" fill="#D0D9DF"/>
</svg>
