<?xml version="1.0" encoding="UTF-8" standalone="no"?>
<svg
   width="24"
   height="16"
   viewBox="0 0 24 16"
   fill="none"
   version="1.1"
   id="svg891"
   sodipodi:docname="one-way_trip.svg"
   inkscape:version="1.1.2 (0a00cf5339, 2022-02-04)"
   xmlns:inkscape="http://www.inkscape.org/namespaces/inkscape"
   xmlns:sodipodi="http://sodipodi.sourceforge.net/DTD/sodipodi-0.dtd"
   xmlns="http://www.w3.org/2000/svg"
   xmlns:svg="http://www.w3.org/2000/svg">
  <defs
     id="defs895" />
  <sodipodi:namedview
     id="namedview893"
     pagecolor="#ffffff"
     bordercolor="#999999"
     borderopacity="1"
     inkscape:pageshadow="0"
     inkscape:pageopacity="0"
     inkscape:pagecheckerboard="0"
     showgrid="false"
     inkscape:zoom="22.46"
     inkscape:cx="9.5725735"
     inkscape:cy="8.8824577"
     inkscape:window-width="1920"
     inkscape:window-height="1142"
     inkscape:window-x="0"
     inkscape:window-y="0"
     inkscape:window-maximized="1"
     inkscape:current-layer="svg891" />
  <path
     fill-rule="evenodd"
     clip-rule="evenodd"
     d="m 23.362972,7.7028881 c 0.0043,0.43454 -1.1416,0.79182 -1.5809,0.7884 -0.0318,-0.00161 -0.0636,-0.00322 -0.1079,-0.01177 l -0.7686,-0.0579 -1.4464,2.8157999 c -0.0486,0.11713 -0.0769,0.19753 -0.1915,0.19801 l -0.395,0.0051 c -0.2611,-6.6e-4 -0.234,-0.04964 -0.2036,-0.19287 l 0.557,-2.5084499 -0.011,-0.4223 -0.394,-0.0263 c -0.4779,0.00722 -1.0661,-0.11077 -1.5397,-0.22923 l -0.6645,0.9923 c -0.1075,0.16449 -0.0768,0.19753 -0.1914,0.198 -0.2611,-6.6e-4 -0.2157,-0.02354 -0.2036,-0.19288 l 0.1805,-1.18052 c -0.0047,-0.05059 0.01,-0.1065 0.0429,-0.1363 -0.0058,-0.01917 -0.0308,-0.03303 -0.024,-0.04528 -0.0057,-0.01917 0.0204,-0.03673 0.0533,-0.06654 -0.05,-0.02771 -0.0672,-0.08523 -0.0718,-0.13583 l -0.2146,-1.17539 c -0.0196,-0.17095 -0.0571,-0.19174 0.1915,-0.198 0.1146,-4.8e-4 0.0943,0.03626 0.2035,0.19287 l 0.7104,1.01802 c 0.4629,-0.12757 1.0394,-0.2242 1.5105,-0.21917 l 0.3893,-0.0243 -0.011,-0.4223 -0.6338,-2.512245 c -0.0332,-0.146462 -0.0696,-0.198668 0.1915,-0.198003 l 0.395,-0.00513 c 0.1146,-4.75e-4 0.1375,0.07622 0.1968,0.205122 l 1.547,2.810392 0.7662,-0.05553 c 0.0443,0.00854 0.0828,-0.00209 0.1146,-4.8e-4 0.4393,0.00342 1.5991,0.35813 1.6033,0.79268 z m -21.8216398,0.99522 c -0.55228004,0 -0.99999604,-0.44771 -0.99999604,-1 0,-0.55228 0.447716,-1 0.99999604,-1 0.55229,0 1,0.44772 1,1 0,0.55229 -0.44771,1 -1,1 z m 2,-0.75 c -0.13807,0 -0.25,-0.11193 -0.25,-0.25 0,-0.13807 0.11193,-0.25 0.25,-0.25 h 1 c 0.13807,0 0.25,0.11193 0.25,0.25 0,0.13807 -0.11193,0.25 -0.25,0.25 z m 2.5,0 c -0.13807,0 -0.25,-0.11193 -0.25,-0.25 0,-0.13807 0.11193,-0.25 0.25,-0.25 h 1 c 0.13807,0 0.25,0.11193 0.25,0.25 0,0.13807 -0.11193,0.25 -0.25,0.25 z m 2.5,0 c -0.13807,0 -0.25,-0.11193 -0.25,-0.25 0,-0.13807 0.11193,-0.25 0.25,-0.25 h 1 c 0.13804,0 0.25004,0.11193 0.25004,0.25 0,0.13807 -0.112,0.25 -0.25004,0.25 z m 2.5000398,0 c -0.1381,0 -0.25,-0.11193 -0.25,-0.25 0,-0.13807 0.1119,-0.25 0.25,-0.25 h 1 c 0.138,0 0.25,0.11193 0.25,0.25 0,0.13807 -0.112,0.25 -0.25,0.25 z m 2.5,0 c -0.1381,0 -0.25,-0.11193 -0.25,-0.25 0,-0.13807 0.1119,-0.25 0.25,-0.25 h 1 c 0.138,0 0.25,0.11193 0.25,0.25 0,0.13807 -0.112,0.25 -0.25,0.25 z"
     fill="#11397e"
     id="path889"
     sodipodi:nodetypes="cccccccccccccccccccccccccccccccccccssssssssssssssssssssssssssssssssssssssss" />
</svg>
